<svg width="109" height="112" viewBox="0 0 109 112" fill="none" xmlns="http://www.w3.org/2000/svg">
<mask id="path-1-inside-1" fill="white">
<path d="M48.3792 5.7446C48.2642 4.8287 47.4275 4.17664 46.516 4.32252C35.5019 6.08532 25.3859 11.5172 17.825 19.7621C10.2642 28.0071 5.72663 38.5546 4.92205 49.6798C4.85546 50.6005 5.57736 51.3777 6.49979 51.4132C7.42222 51.4487 8.19565 50.7291 8.26448 49.8086C9.03714 39.4752 13.2634 29.6825 20.2888 22.0215C27.3142 14.3605 36.7051 9.3039 46.9331 7.64133C47.8442 7.49322 48.4943 6.66051 48.3792 5.7446Z"/>
</mask>
<path d="M48.3792 5.7446C48.2642 4.8287 47.4275 4.17664 46.516 4.32252C35.5019 6.08532 25.3859 11.5172 17.825 19.7621C10.2642 28.0071 5.72663 38.5546 4.92205 49.6798C4.85546 50.6005 5.57736 51.3777 6.49979 51.4132C7.42222 51.4487 8.19565 50.7291 8.26448 49.8086C9.03714 39.4752 13.2634 29.6825 20.2888 22.0215C27.3142 14.3605 36.7051 9.3039 46.9331 7.64133C47.8442 7.49322 48.4943 6.66051 48.3792 5.7446Z" stroke="#282F65" stroke-width="8" mask="url(#path-1-inside-1)"/>
<mask id="path-2-inside-2" fill="white">
<path d="M103.034 50.5401C103.984 50.466 104.698 49.6347 104.591 48.6874C103.365 37.8419 98.5884 27.6861 90.9806 19.8151C83.3729 11.9441 73.3853 6.82541 62.5878 5.23121C61.6446 5.09195 60.7895 5.77688 60.6832 6.72433C60.5769 7.67179 61.2596 8.52275 62.2024 8.66447C72.202 10.1675 81.4484 14.9208 88.4981 22.2145C95.5479 29.5083 99.9841 38.9109 101.146 48.9558C101.256 49.9029 102.083 50.6142 103.034 50.5401Z"/>
</mask>
<path d="M103.034 50.5401C103.984 50.466 104.698 49.6347 104.591 48.6874C103.365 37.8419 98.5884 27.6861 90.9806 19.8151C83.3729 11.9441 73.3853 6.82541 62.5878 5.23121C61.6446 5.09195 60.7895 5.77688 60.6832 6.72433C60.5769 7.67179 61.2596 8.52275 62.2024 8.66447C72.202 10.1675 81.4484 14.9208 88.4981 22.2145C95.5479 29.5083 99.9841 38.9109 101.146 48.9558C101.256 49.9029 102.083 50.6142 103.034 50.5401Z" stroke="#DDE4EF" stroke-width="8" mask="url(#path-2-inside-2)"/>
<mask id="path-3-inside-3" fill="white">
<path d="M55.7724 105.244C55.7977 106.098 56.5105 106.771 57.3626 106.719C68.3202 106.052 78.763 101.762 87.036 94.502C95.309 87.2416 100.918 77.4441 103.003 66.666C103.165 65.8278 102.589 65.0336 101.747 64.8977C100.904 64.7618 100.113 65.3357 99.9491 66.1735C97.9802 76.2421 92.7296 85.3923 84.9969 92.1784C77.2642 98.9646 67.5097 102.983 57.2708 103.628C56.4188 103.681 55.7471 104.391 55.7724 105.244Z"/>
</mask>
<path d="M55.7724 105.244C55.7977 106.098 56.5105 106.771 57.3626 106.719C68.3202 106.052 78.763 101.762 87.036 94.502C95.309 87.2416 100.918 77.4441 103.003 66.666C103.165 65.8278 102.589 65.0336 101.747 64.8977C100.904 64.7618 100.113 65.3357 99.9491 66.1735C97.9802 76.2421 92.7296 85.3923 84.9969 92.1784C77.2642 98.9646 67.5097 102.983 57.2708 103.628C56.4188 103.681 55.7471 104.391 55.7724 105.244Z" stroke="#282F65" stroke-width="8" mask="url(#path-3-inside-3)"/>
<mask id="path-4-inside-4" fill="white">
<path d="M5.62871 64.685C4.80936 64.7956 4.23253 65.5502 4.36783 66.3659C6.16713 77.2127 11.5268 87.1693 19.6227 94.6506C27.7186 102.132 38.0665 106.691 49.0213 107.63C49.8451 107.701 50.5519 107.066 50.5976 106.241C50.6433 105.415 50.0106 104.711 49.187 104.639C38.9274 103.739 29.2393 99.4606 21.6547 92.4517C14.0702 85.4429 9.04153 76.1219 7.33641 65.9651C7.19952 65.1497 6.44807 64.5744 5.62871 64.685Z"/>
</mask>
<path d="M5.62871 64.685C4.80936 64.7956 4.23253 65.5502 4.36783 66.3659C6.16713 77.2127 11.5268 87.1693 19.6227 94.6506C27.7186 102.132 38.0665 106.691 49.0213 107.63C49.8451 107.701 50.5519 107.066 50.5976 106.241C50.6433 105.415 50.0106 104.711 49.187 104.639C38.9274 103.739 29.2393 99.4606 21.6547 92.4517C14.0702 85.4429 9.04153 76.1219 7.33641 65.9651C7.19952 65.1497 6.44807 64.5744 5.62871 64.685Z" stroke="#DDE4EF" stroke-width="8" mask="url(#path-4-inside-4)"/>
</svg>
